<svg xmlns="http://www.w3.org/2000/svg" width="800" height="200" viewBox="0 0 800 200">
  <defs>
    <linearGradient id="bg" x1="0%" y1="0%" x2="100%" y2="100%">
      <stop offset="0%" style="stop-color:#0f172a;stop-opacity:1" />
      <stop offset="100%" style="stop-color:#1e1b4b;stop-opacity:1" />
    </linearGradient>
    <linearGradient id="accent" x1="0%" y1="0%" x2="100%" y2="0%">
      <stop offset="0%" style="stop-color:#ec4899;stop-opacity:1" />
      <stop offset="100%" style="stop-color:#8b5cf6;stop-opacity:1" />
    </linearGradient>
  </defs>
  <rect width="800" height="200" rx="12" fill="url(#bg)"/>
  <rect x="0" y="188" width="800" height="12" rx="0" fill="url(#accent)" opacity="0.8"/>
  <text x="400" y="95" font-size="48" font-weight="bold" fill="#ffffff" font-family="system-ui, -apple-system, sans-serif" text-anchor="middle">PEOSGraph</text>
  <text x="400" y="135" font-size="16" fill="#94a3b8" font-family="system-ui, -apple-system, sans-serif" text-anchor="middle">Plan-Execute-Observe-Synthesize as a Composable LangGraph State Machine</text>
  <!-- PEOS flow nodes -->
  <circle cx="65" cy="55" r="6" fill="#ec4899" opacity="0.5"/>
  <circle cx="95" cy="55" r="6" fill="#a855f7" opacity="0.5"/>
  <circle cx="125" cy="55" r="6" fill="#8b5cf6" opacity="0.5"/>
  <circle cx="155" cy="55" r="6" fill="#6366f1" opacity="0.5"/>
  <line x1="71" y1="55" x2="89" y2="55" stroke="#ec4899" stroke-width="1.5" opacity="0.4"/>
  <line x1="101" y1="55" x2="119" y2="55" stroke="#a855f7" stroke-width="1.5" opacity="0.4"/>
  <line x1="131" y1="55" x2="149" y2="55" stroke="#8b5cf6" stroke-width="1.5" opacity="0.4"/>
  <circle cx="665" cy="55" r="6" fill="#ec4899" opacity="0.5"/>
  <circle cx="695" cy="55" r="6" fill="#a855f7" opacity="0.5"/>
  <circle cx="725" cy="55" r="6" fill="#8b5cf6" opacity="0.5"/>
  <circle cx="755" cy="55" r="6" fill="#6366f1" opacity="0.5"/>
  <line x1="671" y1="55" x2="689" y2="55" stroke="#ec4899" stroke-width="1.5" opacity="0.4"/>
  <line x1="701" y1="55" x2="719" y2="55" stroke="#a855f7" stroke-width="1.5" opacity="0.4"/>
  <line x1="731" y1="55" x2="749" y2="55" stroke="#8b5cf6" stroke-width="1.5" opacity="0.4"/>
</svg>
